<svg width="153" height="153" viewBox="0 0 153 153" fill="none" xmlns="http://www.w3.org/2000/svg">
<g filter="url(#filter0_d)">
<circle cx="76.5" cy="72.5" r="46.5" fill="white"/>
</g>
<path d="M59.168 90.252H91.248C94.6758 90.252 96.4336 88.4941 96.4336 85.1191V66.6621C96.4336 63.2695 94.6758 61.5117 91.248 61.5117H86.0977C84.6914 61.5117 84.2871 61.3184 83.4434 60.3691L81.9844 58.7344C81.0703 57.75 80.2617 57.3105 78.5039 57.3105H71.6484C69.8906 57.3105 69.082 57.75 68.1855 58.7344L66.709 60.3691C65.8828 61.3008 65.4609 61.5117 64.0547 61.5117H59.168C55.7402 61.5117 53.9824 63.2695 53.9824 66.6621V85.1191C53.9824 88.4941 55.7402 90.252 59.168 90.252ZM75.2168 85.3828C69.8555 85.3828 65.5488 81.0762 65.5488 75.6973C65.5488 70.3184 69.8555 66.0293 75.2168 66.0293C80.5781 66.0293 84.8672 70.3184 84.8672 75.6973C84.8672 81.0762 80.5605 85.3828 75.2168 85.3828ZM86.0098 69.2637C86.0098 68.1211 87.0117 67.1016 88.207 67.1016C89.3496 67.1016 90.3516 68.1211 90.3516 69.2637C90.3516 70.459 89.3496 71.4434 88.207 71.4258C87.0117 71.4258 86.0098 70.4941 86.0098 69.2637ZM75.2168 83.291C79.4004 83.291 82.7754 79.8984 82.7754 75.6973C82.7754 71.4961 79.4004 68.1035 75.2168 68.1035C71.0156 68.1035 67.6406 71.4961 67.6406 75.6973C67.6406 79.8984 71.0332 83.291 75.2168 83.291Z" fill="#7678E8"/>
<defs>
<filter id="filter0_d" x="0" y="0" width="153" height="153" filterUnits="userSpaceOnUse" color-interpolation-filters="sRGB">
<feFlood flood-opacity="0" result="BackgroundImageFix"/>
<feColorMatrix in="SourceAlpha" type="matrix" values="0 0 0 0 0 0 0 0 0 0 0 0 0 0 0 0 0 0 127 0" result="hardAlpha"/>
<feOffset dy="4"/>
<feGaussianBlur stdDeviation="15"/>
<feColorMatrix type="matrix" values="0 0 0 0 0 0 0 0 0 0 0 0 0 0 0 0 0 0 0.06 0"/>
<feBlend mode="normal" in2="BackgroundImageFix" result="effect1_dropShadow"/>
<feBlend mode="normal" in="SourceGraphic" in2="effect1_dropShadow" result="shape"/>
</filter>
</defs>
</svg>
